<svg xmlns="http://www.w3.org/2000/svg" xmlns:xlink="http://www.w3.org/1999/xlink" width="500" zoomAndPan="magnify" viewBox="0 0 375 374.999991" height="500" preserveAspectRatio="xMidYMid meet" version="1.0"><defs><g/><clipPath id="a793f7b6e1"><rect x="0" width="249" y="0" height="375"/></clipPath><clipPath id="a76257bbf0"><rect x="0" width="191" y="0" height="375"/></clipPath><clipPath id="4ddba7bde6"><path d="M 0.84375 33 L 153.492188 33 L 153.492188 286 L 0.84375 286 Z M 0.84375 33 " clip-rule="nonzero"/></clipPath><clipPath id="0beec8ff91"><path d="M 114 248.40625 L 283.5625 248.40625 L 283.5625 340.628906 L 114 340.628906 Z M 114 248.40625 " clip-rule="nonzero"/></clipPath><clipPath id="7fb60e95db"><path d="M 68.824219 54.285156 L 117.289062 54.285156 L 117.289062 102.75 L 68.824219 102.75 Z M 68.824219 54.285156 " clip-rule="nonzero"/></clipPath><clipPath id="41e19c89e6"><path d="M 68.824219 102.75 C 68.824219 89.988281 73.996094 77.507812 83.019531 68.480469 C 92.042969 59.457031 104.523438 54.285156 117.289062 54.285156 L 117.289062 79.011719 C 111.035156 79.011719 104.921875 81.542969 100.503906 85.964844 C 96.082031 90.386719 93.550781 96.5 93.550781 102.75 Z M 68.824219 102.75 " clip-rule="nonzero"/></clipPath><clipPath id="88e208feea"><path d="M 0.824219 0.285156 L 49.289062 0.285156 L 49.289062 48.75 L 0.824219 48.75 Z M 0.824219 0.285156 " clip-rule="nonzero"/></clipPath><clipPath id="ccd555c07a"><path d="M 0.824219 48.75 C 0.824219 35.988281 5.996094 23.507812 15.019531 14.480469 C 24.042969 5.457031 36.523438 0.285156 49.289062 0.285156 L 49.289062 25.011719 C 43.035156 25.011719 36.921875 27.542969 32.503906 31.964844 C 28.082031 36.386719 25.550781 42.5 25.550781 48.75 Z M 0.824219 48.75 " clip-rule="nonzero"/></clipPath><clipPath id="4aa3a9475b"><rect x="0" width="50" y="0" height="49"/></clipPath><clipPath id="a9d9885312"><path d="M 28.824219 54.285156 L 77.285156 54.285156 L 77.285156 102.75 L 28.824219 102.75 Z M 28.824219 54.285156 " clip-rule="nonzero"/></clipPath><clipPath id="705d5e6754"><path d="M 28.824219 54.285156 C 41.585938 54.285156 54.066406 59.457031 63.09375 68.480469 C 72.117188 77.507812 77.285156 89.988281 77.285156 102.75 L 52.5625 102.75 C 52.5625 96.5 50.03125 90.386719 45.609375 85.964844 C 41.1875 81.542969 35.074219 79.011719 28.824219 79.011719 Z M 28.824219 54.285156 " clip-rule="nonzero"/></clipPath><clipPath id="8cf42172a4"><path d="M 0.824219 0.285156 L 49.285156 0.285156 L 49.285156 48.75 L 0.824219 48.75 Z M 0.824219 0.285156 " clip-rule="nonzero"/></clipPath><clipPath id="b595d7f297"><path d="M 0.824219 0.285156 C 13.585938 0.285156 26.066406 5.457031 35.09375 14.480469 C 44.117188 23.507812 49.285156 35.988281 49.285156 48.75 L 24.5625 48.75 C 24.5625 42.5 22.03125 36.386719 17.609375 31.964844 C 13.1875 27.542969 7.074219 25.011719 0.824219 25.011719 Z M 0.824219 0.285156 " clip-rule="nonzero"/></clipPath><clipPath id="4d575da2fc"><rect x="0" width="50" y="0" height="49"/></clipPath><clipPath id="9a4aa2452b"><path d="M 210 268 L 266 268 L 266 351 L 210 351 Z M 210 268 " clip-rule="nonzero"/></clipPath><clipPath id="fee0c4b8fc"><path d="M 189.070312 310.816406 L 215.601562 268.902344 L 278.636719 308.800781 L 252.109375 350.714844 Z M 189.070312 310.816406 " clip-rule="nonzero"/></clipPath><clipPath id="b059da5a91"><path d="M 252.019531 350.660156 C 235.441406 340.167969 222.0625 325.4375 215.277344 310.210938 C 208.496094 294.984375 208.613281 279.941406 215.601562 268.902344 L 247.714844 289.226562 C 244.292969 294.636719 244.234375 302.003906 247.558594 309.460938 C 250.878906 316.921875 257.433594 324.136719 265.554688 329.277344 Z M 252.019531 350.660156 " clip-rule="nonzero"/></clipPath><clipPath id="d27e4572ee"><path d="M 0 0.800781 L 55.640625 0.800781 L 55.640625 82.878906 L 0 82.878906 Z M 0 0.800781 " clip-rule="nonzero"/></clipPath><clipPath id="d83b923ff0"><path d="M -20.929688 42.816406 L 5.601562 0.902344 L 68.636719 40.800781 L 42.109375 82.714844 Z M -20.929688 42.816406 " clip-rule="nonzero"/></clipPath><clipPath id="0c0d686285"><path d="M 42.019531 82.660156 C 25.441406 72.167969 12.0625 57.4375 5.277344 42.210938 C -1.503906 26.984375 -1.386719 11.941406 5.601562 0.902344 L 37.714844 21.226562 C 34.292969 26.636719 34.234375 34.003906 37.558594 41.460938 C 40.878906 48.921875 47.433594 56.136719 55.554688 61.277344 Z M 42.019531 82.660156 " clip-rule="nonzero"/></clipPath><clipPath id="6a429b7713"><rect x="0" width="56" y="0" height="83"/></clipPath><clipPath id="c5c995217b"><path d="M 181 279 L 212 279 L 212 341 L 181 341 Z M 181 279 " clip-rule="nonzero"/></clipPath><clipPath id="451cfcf77c"><path d="M 229.261719 315.078125 L 194.839844 340.484375 L 168.246094 304.449219 L 202.667969 279.042969 Z M 229.261719 315.078125 " clip-rule="nonzero"/></clipPath><clipPath id="cebfe13333"><path d="M 202.695312 279.085938 C 209.691406 288.566406 212.863281 300.542969 211.398438 311.976562 C 209.9375 323.410156 203.90625 333.792969 194.839844 340.484375 L 181.289062 322.121094 C 185.726562 318.84375 188.683594 313.757812 189.398438 308.15625 C 190.117188 302.554688 188.5625 296.6875 185.136719 292.046875 Z M 202.695312 279.085938 " clip-rule="nonzero"/></clipPath><clipPath id="6376514373"><path d="M 0.160156 0 L 31 0 L 31 61.558594 L 0.160156 61.558594 Z M 0.160156 0 " clip-rule="nonzero"/></clipPath><clipPath id="b0e9df2c9f"><path d="M 48.261719 36.078125 L 13.839844 61.484375 L -12.753906 25.449219 L 21.667969 0.0429688 Z M 48.261719 36.078125 " clip-rule="nonzero"/></clipPath><clipPath id="a23d5c5bbe"><path d="M 21.695312 0.0859375 C 28.691406 9.566406 31.863281 21.542969 30.398438 32.976562 C 28.9375 44.410156 22.90625 54.792969 13.839844 61.484375 L 0.289062 43.121094 C 4.726562 39.84375 7.683594 34.757812 8.398438 29.15625 C 9.117188 23.554688 7.5625 17.6875 4.136719 13.046875 Z M 21.695312 0.0859375 " clip-rule="nonzero"/></clipPath><clipPath id="e2fbc140e1"><rect x="0" width="31" y="0" height="62"/></clipPath><clipPath id="481d3a69fd"><rect x="0" width="374" y="0" height="375"/></clipPath></defs><g transform="matrix(1, 0, 0, 1, 1, 0)"><g clip-path="url(#481d3a69fd)"><g transform="matrix(1, 0, 0, 1, 1, 0)"><g clip-path="url(#a793f7b6e1)"><g fill="#000000" fill-opacity="1"><g transform="translate(1.020187, 340.872585)"><g><path d="M 21.109375 0 L 18.578125 -16.46875 C 33.492188 -19 42.566406 -21.8125 45.796875 -24.90625 C 49.035156 -28 50.65625 -33.910156 50.65625 -42.640625 L 50.65625 -249.890625 C 50.65625 -258.617188 49.035156 -264.53125 45.796875 -267.625 C 42.566406 -270.71875 33.492188 -273.53125 18.578125 -276.0625 L 21.109375 -292.53125 L 124.53125 -292.53125 L 126.21875 -276.0625 L 100.046875 -271 C 94.410156 -269.875 91.59375 -266.21875 91.59375 -260.03125 L 91.59375 -21.53125 L 129.171875 -21.953125 C 160.410156 -22.515625 178.703125 -23.5 184.046875 -24.90625 C 188.546875 -26.3125 196.425781 -47.976562 207.6875 -89.90625 L 230.90625 -87.796875 C 231.1875 -83.015625 231.328125 -73.234375 231.328125 -58.453125 C 231.328125 -43.679688 229.78125 -24.195312 226.6875 0 Z M 21.109375 0 "/></g></g></g></g></g><g transform="matrix(1, 0, 0, 1, 183, 0)"><g clip-path="url(#a76257bbf0)"><g fill="#000000" fill-opacity="1"><g transform="translate(8.243897, 350.518284)"><g><path d="M 50.140625 -31.140625 C 54.441406 -28.109375 61.46875 -25.132812 71.21875 -22.21875 C 80.96875 -19.3125 91.921875 -17.859375 104.078125 -17.859375 C 116.234375 -17.859375 126.363281 -21.53125 134.46875 -28.875 C 142.570312 -36.21875 146.625 -46.09375 146.625 -58.5 C 146.625 -77.738281 135.734375 -93.4375 113.953125 -105.59375 C 108.378906 -108.382812 99.769531 -112.25 88.125 -117.1875 C 76.476562 -122.125 68.25 -125.796875 63.4375 -128.203125 C 58.625 -130.609375 52.988281 -134.023438 46.53125 -138.453125 C 40.070312 -142.878906 35.070312 -147.375 31.53125 -151.9375 C 22.664062 -162.820312 18.234375 -176.117188 18.234375 -191.828125 C 18.234375 -214.867188 26.78125 -233.097656 43.875 -246.515625 C 60.96875 -259.941406 83.1875 -266.65625 110.53125 -266.65625 C 131.300781 -266.65625 150.800781 -263.234375 169.03125 -256.390625 C 169.789062 -250.316406 170.171875 -242.273438 170.171875 -232.265625 C 170.171875 -222.265625 168.773438 -208.910156 165.984375 -192.203125 L 143.953125 -189.546875 C 141.171875 -218.160156 137.753906 -234.113281 133.703125 -237.40625 C 127.628906 -242.71875 116.550781 -245.375 100.46875 -245.375 C 84.382812 -245.375 71.910156 -242.144531 63.046875 -235.6875 C 54.191406 -229.226562 49.765625 -219.796875 49.765625 -207.390625 C 49.765625 -200.304688 51.15625 -193.976562 53.9375 -188.40625 C 56.71875 -182.832031 61.78125 -177.640625 69.125 -172.828125 C 76.46875 -168.015625 82.296875 -164.597656 86.609375 -162.578125 C 92.929688 -159.285156 101.789062 -155.234375 113.1875 -150.421875 C 124.582031 -145.609375 133.445312 -141.425781 139.78125 -137.875 C 146.113281 -134.332031 152.953125 -129.648438 160.296875 -123.828125 C 174.472656 -111.921875 181.5625 -94.695312 181.5625 -72.15625 C 181.5625 -49.625 173.519531 -31.394531 157.4375 -17.46875 C 141.363281 -3.539062 119.398438 3.421875 91.546875 3.421875 C 76.597656 3.421875 61.71875 1.585938 46.90625 -2.078125 C 32.09375 -5.753906 21.269531 -9.367188 14.4375 -12.921875 C 13.675781 -15.953125 13.296875 -23.164062 13.296875 -34.5625 C 13.296875 -45.957031 14.816406 -59.757812 17.859375 -75.96875 L 39.5 -77.109375 C 41.53125 -58.878906 43.238281 -47.101562 44.625 -41.78125 C 46.019531 -36.46875 47.859375 -32.921875 50.140625 -31.140625 Z M 50.140625 -31.140625 "/></g></g></g></g></g><g clip-path="url(#4ddba7bde6)"><path fill="#000000" d="M 153.242188 68.679688 C 153.242188 60.117188 145.691406 56.679688 145.691406 56.679688 L 98.320312 33.375 L 12.117188 33.375 C 12.117188 33.375 0.75 32.898438 0.75 42.890625 L 0.75 70.472656 C 0.75 80.460938 12.117188 79.984375 12.117188 79.984375 L 19.960938 79.984375 L 19.957031 79.988281 L 52.679688 79.988281 L 52.679688 279.492188 C 52.679688 282.867188 55.136719 285.601562 58.175781 285.601562 L 82.015625 285.601562 C 85.046875 285.601562 87.507812 282.867188 87.507812 279.492188 L 87.507812 79.984375 L 153.246094 79.984375 L 153.246094 68.679688 Z M 153.242188 68.679688 " fill-opacity="1" fill-rule="nonzero"/></g><g clip-path="url(#0beec8ff91)"><path fill="#000000" d="M 280.929688 248.40625 L 175.796875 248.40625 C 174.351562 248.40625 173.199219 249.582031 173.199219 251.023438 L 173.199219 255.316406 L 163.308594 255.316406 C 162.617188 255.316406 162.0625 255.875 162.0625 256.570312 L 162.0625 257.003906 L 118.3125 257.003906 C 115.289062 257.003906 113.492188 260.660156 115.164062 263.386719 C 120.003906 271.257812 126.488281 277.550781 133.953125 281.875 C 138.53125 284.539062 143.476562 286.445312 148.636719 287.527344 C 151.878906 288.210938 155.199219 288.566406 158.5625 288.566406 C 159.746094 288.566406 160.925781 288.660156 162.0625 288.847656 L 162.0625 289.683594 C 162.0625 290.378906 162.617188 290.9375 163.308594 290.9375 L 172.816406 290.9375 C 180.421875 290.9375 187.085938 296.191406 188.839844 303.660156 C 188.855469 303.707031 188.871094 303.765625 188.871094 303.8125 C 189.914062 308.371094 190.453125 312.925781 190.511719 317.480469 L 185.613281 317.480469 C 183.554688 317.480469 181.621094 317.867188 180.480469 318.503906 L 155.488281 332.464844 L 155.488281 340.628906 L 269.933594 340.628906 L 269.933594 332.464844 L 244.9375 318.503906 C 243.789062 317.867188 241.867188 317.480469 239.808594 317.480469 L 234.921875 317.480469 C 235.367188 299.320312 247.933594 283.65625 265.492188 279.207031 L 272.023438 277.550781 C 278.765625 275.847656 283.496094 269.726562 283.496094 262.722656 L 283.496094 251.023438 C 283.496094 249.566406 282.34375 248.40625 280.929688 248.40625 Z M 280.929688 248.40625 " fill-opacity="1" fill-rule="nonzero"/></g><g clip-path="url(#7fb60e95db)"><g clip-path="url(#41e19c89e6)"><g transform="matrix(1, 0, 0, 1, 68, 54)"><g clip-path="url(#4aa3a9475b)"><g clip-path="url(#88e208feea)"><g clip-path="url(#ccd555c07a)"><path fill="#000000" d="M 0.824219 0.285156 L 49.289062 0.285156 L 49.289062 48.75 L 0.824219 48.75 Z M 0.824219 0.285156 " fill-opacity="1" fill-rule="nonzero"/></g></g></g></g></g></g><g clip-path="url(#a9d9885312)"><g clip-path="url(#705d5e6754)"><g transform="matrix(1, 0, 0, 1, 28, 54)"><g clip-path="url(#4d575da2fc)"><g clip-path="url(#8cf42172a4)"><g clip-path="url(#b595d7f297)"><path fill="#000000" d="M 49.285156 0.285156 L 49.285156 48.75 L 0.824219 48.75 L 0.824219 0.285156 Z M 49.285156 0.285156 " fill-opacity="1" fill-rule="nonzero"/></g></g></g></g></g></g><g clip-path="url(#9a4aa2452b)"><g clip-path="url(#fee0c4b8fc)"><g clip-path="url(#b059da5a91)"><g transform="matrix(1, 0, 0, 1, 210, 268)"><g clip-path="url(#6a429b7713)"><g clip-path="url(#d27e4572ee)"><g clip-path="url(#d83b923ff0)"><g clip-path="url(#0c0d686285)"><path fill="#000000" d="M -20.929688 42.816406 L 5.601562 0.902344 L 68.472656 40.695312 L 41.945312 82.613281 Z M -20.929688 42.816406 " fill-opacity="1" fill-rule="nonzero"/></g></g></g></g></g></g></g></g><g clip-path="url(#c5c995217b)"><g clip-path="url(#451cfcf77c)"><g clip-path="url(#cebfe13333)"><g transform="matrix(1, 0, 0, 1, 181, 279)"><g clip-path="url(#e2fbc140e1)"><g clip-path="url(#6376514373)"><g clip-path="url(#b0e9df2c9f)"><g clip-path="url(#a23d5c5bbe)"><path fill="#000000" d="M 48.261719 36.078125 L 13.839844 61.484375 L -12.753906 25.449219 L 21.667969 0.0429688 Z M 48.261719 36.078125 " fill-opacity="1" fill-rule="nonzero"/></g></g></g></g></g></g></g></g></g></g></svg>