<svg xmlns="http://www.w3.org/2000/svg" xmlns:xlink="http://www.w3.org/1999/xlink" width="500" zoomAndPan="magnify" viewBox="0 0 375 374.999991" height="500" preserveAspectRatio="xMidYMid meet" version="1.0"><defs><g/><clipPath id="1e8fefb1fc"><rect x="0" width="242" y="0" height="375"/></clipPath><clipPath id="aac02b30ae"><rect x="0" width="191" y="0" height="375"/></clipPath><clipPath id="877448e2f5"><path d="M 7.199219 39 L 155.457031 39 L 155.457031 284 L 7.199219 284 Z M 7.199219 39 " clip-rule="nonzero"/></clipPath><clipPath id="6900295923"><path d="M 117 246.652344 L 281.785156 246.652344 L 281.785156 336 L 117 336 Z M 117 246.652344 " clip-rule="nonzero"/></clipPath><clipPath id="8a9ac0742f"><path d="M 34.375 59.410156 L 81.445312 59.410156 L 81.445312 106.480469 L 34.375 106.480469 Z M 34.375 59.410156 " clip-rule="nonzero"/></clipPath><clipPath id="77b603bb31"><path d="M 34.375 59.410156 C 46.769531 59.410156 58.890625 64.429688 67.65625 73.195312 C 76.421875 81.960938 81.445312 94.085938 81.445312 106.480469 L 57.429688 106.480469 C 57.429688 100.40625 54.972656 94.472656 50.675781 90.175781 C 46.382812 85.882812 40.445312 83.425781 34.375 83.425781 Z M 34.375 59.410156 " clip-rule="nonzero"/></clipPath><clipPath id="cca0833466"><path d="M 0.375 0.410156 L 47.445312 0.410156 L 47.445312 47.480469 L 0.375 47.480469 Z M 0.375 0.410156 " clip-rule="nonzero"/></clipPath><clipPath id="dbf0f07560"><path d="M 0.375 0.410156 C 12.769531 0.410156 24.890625 5.429688 33.65625 14.195312 C 42.421875 22.960938 47.445312 35.085938 47.445312 47.480469 L 23.429688 47.480469 C 23.429688 41.40625 20.972656 35.472656 16.675781 31.175781 C 12.382812 26.882812 6.445312 24.425781 0.375 24.425781 Z M 0.375 0.410156 " clip-rule="nonzero"/></clipPath><clipPath id="b8989632ef"><rect x="0" width="48" y="0" height="48"/></clipPath><clipPath id="46740754c4"><path d="M 210 266 L 265 266 L 265 346 L 210 346 Z M 210 266 " clip-rule="nonzero"/></clipPath><clipPath id="8372af0c6a"><path d="M 190.011719 307.269531 L 215.777344 266.558594 L 277.003906 305.3125 L 251.238281 346.019531 Z M 190.011719 307.269531 " clip-rule="nonzero"/></clipPath><clipPath id="c77d6505d3"><path d="M 251.152344 345.96875 C 235.050781 335.777344 222.054688 321.46875 215.46875 306.679688 C 208.878906 291.894531 208.992188 277.28125 215.777344 266.558594 L 246.96875 286.300781 C 243.644531 291.554688 243.589844 298.710938 246.816406 305.953125 C 250.042969 313.199219 256.410156 320.207031 264.296875 325.199219 Z M 251.152344 345.96875 " clip-rule="nonzero"/></clipPath><clipPath id="57cb734b76"><path d="M 0 0.398438 L 54.480469 0.398438 L 54.480469 80 L 0 80 Z M 0 0.398438 " clip-rule="nonzero"/></clipPath><clipPath id="62f8a6800f"><path d="M -19.988281 41.269531 L 5.777344 0.558594 L 67.003906 39.3125 L 41.238281 80.019531 Z M -19.988281 41.269531 " clip-rule="nonzero"/></clipPath><clipPath id="071bd642a5"><path d="M 41.152344 79.96875 C 25.050781 69.777344 12.054688 55.46875 5.46875 40.679688 C -1.121094 25.894531 -1.007812 11.28125 5.777344 0.558594 L 36.96875 20.300781 C 33.644531 25.554688 33.589844 32.710938 36.816406 39.953125 C 40.042969 47.199219 46.410156 54.207031 54.296875 59.199219 Z M 41.152344 79.96875 " clip-rule="nonzero"/></clipPath><clipPath id="d08e6246ff"><rect x="0" width="55" y="0" height="80"/></clipPath><clipPath id="836f901af9"><path d="M 182 276 L 213 276 L 213 337 L 182 337 Z M 182 276 " clip-rule="nonzero"/></clipPath><clipPath id="9de6eeb7aa"><path d="M 229.046875 311.410156 L 195.617188 336.082031 L 169.785156 301.085938 L 203.21875 276.410156 Z M 229.046875 311.410156 " clip-rule="nonzero"/></clipPath><clipPath id="798bff3635"><path d="M 203.246094 276.449219 C 210.042969 285.65625 213.121094 297.292969 211.699219 308.398438 C 210.277344 319.503906 204.421875 329.585938 195.617188 336.082031 L 182.453125 318.25 C 186.765625 315.066406 189.636719 310.125 190.332031 304.6875 C 191.027344 299.246094 189.519531 293.546875 186.191406 289.039062 Z M 203.246094 276.449219 " clip-rule="nonzero"/></clipPath><clipPath id="97003c2c35"><path d="M 0.398438 0.238281 L 31 0.238281 L 31 60.238281 L 0.398438 60.238281 Z M 0.398438 0.238281 " clip-rule="nonzero"/></clipPath><clipPath id="02ef122c4b"><path d="M 47.046875 35.410156 L 13.617188 60.082031 L -12.214844 25.085938 L 21.21875 0.410156 Z M 47.046875 35.410156 " clip-rule="nonzero"/></clipPath><clipPath id="6c67706c5e"><path d="M 21.246094 0.449219 C 28.042969 9.65625 31.121094 21.292969 29.699219 32.398438 C 28.277344 43.503906 22.421875 53.585938 13.617188 60.082031 L 0.453125 42.25 C 4.765625 39.066406 7.636719 34.125 8.332031 28.6875 C 9.027344 23.246094 7.519531 17.546875 4.191406 13.039062 Z M 21.246094 0.449219 " clip-rule="nonzero"/></clipPath><clipPath id="7e92f4e197"><rect x="0" width="31" y="0" height="61"/></clipPath><clipPath id="e0745a7cd1"><path d="M 73.226562 59.410156 L 120.296875 59.410156 L 120.296875 106.480469 L 73.226562 106.480469 Z M 73.226562 59.410156 " clip-rule="nonzero"/></clipPath><clipPath id="74c9b92dcf"><path d="M 73.226562 106.480469 C 73.226562 94.085938 78.246094 81.960938 87.011719 73.195312 C 95.777344 64.429688 107.898438 59.410156 120.296875 59.410156 L 120.296875 83.425781 C 114.222656 83.425781 108.285156 85.882812 103.992188 90.175781 C 99.699219 94.472656 97.238281 100.40625 97.238281 106.480469 Z M 73.226562 106.480469 " clip-rule="nonzero"/></clipPath><clipPath id="73290dd9ff"><path d="M 0.226562 0.410156 L 47.296875 0.410156 L 47.296875 47.480469 L 0.226562 47.480469 Z M 0.226562 0.410156 " clip-rule="nonzero"/></clipPath><clipPath id="1a8c1afcee"><path d="M 0.226562 47.480469 C 0.226562 35.085938 5.246094 22.960938 14.011719 14.195312 C 22.777344 5.429688 34.898438 0.410156 47.296875 0.410156 L 47.296875 24.425781 C 41.222656 24.425781 35.285156 26.882812 30.992188 31.175781 C 26.699219 35.472656 24.238281 41.40625 24.238281 47.480469 Z M 0.226562 47.480469 " clip-rule="nonzero"/></clipPath><clipPath id="91901ccf7e"><rect x="0" width="48" y="0" height="48"/></clipPath><clipPath id="0237ee2ede"><rect x="0" width="375" y="0" height="375"/></clipPath></defs><g transform="matrix(1, 0, 0, 1, 0, 0)"><g clip-path="url(#0237ee2ede)"><g transform="matrix(1, 0, 0, 1, 7, 0)"><g clip-path="url(#1e8fefb1fc)"><g fill="#ff9900" fill-opacity="1"><g transform="translate(1.342022, 336.461374)"><g><path d="M 20.5 0 L 18.046875 -15.984375 C 32.523438 -18.441406 41.335938 -21.175781 44.484375 -24.1875 C 47.628906 -27.195312 49.203125 -32.9375 49.203125 -41.40625 L 49.203125 -242.703125 C 49.203125 -251.179688 47.628906 -256.921875 44.484375 -259.921875 C 41.335938 -262.929688 32.523438 -265.664062 18.046875 -268.125 L 20.5 -284.125 L 120.953125 -284.125 L 122.578125 -268.125 L 97.171875 -263.203125 C 91.703125 -262.109375 88.96875 -258.554688 88.96875 -252.546875 L 88.96875 -20.90625 L 125.453125 -21.3125 C 155.796875 -21.863281 173.5625 -22.820312 178.75 -24.1875 C 183.125 -25.550781 190.78125 -46.597656 201.71875 -87.328125 L 224.265625 -85.28125 C 224.535156 -80.632812 224.671875 -71.132812 224.671875 -56.78125 C 224.671875 -42.4375 223.164062 -23.507812 220.15625 0 Z M 20.5 0 "/></g></g></g></g></g><g transform="matrix(1, 0, 0, 1, 184, 0)"><g clip-path="url(#aac02b30ae)"><g fill="#ff9900" fill-opacity="1"><g transform="translate(8.123363, 345.829633)"><g><path d="M 48.703125 -30.25 C 52.878906 -27.300781 59.703125 -24.410156 69.171875 -21.578125 C 78.640625 -18.753906 89.273438 -17.34375 101.078125 -17.34375 C 112.890625 -17.34375 122.726562 -20.90625 130.59375 -28.03125 C 138.46875 -35.164062 142.40625 -44.757812 142.40625 -56.8125 C 142.40625 -75.507812 131.828125 -90.757812 110.671875 -102.5625 C 105.265625 -105.269531 96.90625 -109.019531 85.59375 -113.8125 C 74.28125 -118.601562 66.285156 -122.164062 61.609375 -124.5 C 56.929688 -126.84375 51.457031 -130.164062 45.1875 -134.46875 C 38.914062 -138.769531 34.0625 -143.132812 30.625 -147.5625 C 22.007812 -158.144531 17.703125 -171.0625 17.703125 -186.3125 C 17.703125 -208.6875 26.003906 -226.390625 42.609375 -239.421875 C 59.210938 -252.460938 80.796875 -258.984375 107.359375 -258.984375 C 127.523438 -258.984375 146.460938 -255.660156 164.171875 -249.015625 C 164.910156 -243.117188 165.28125 -235.3125 165.28125 -225.59375 C 165.28125 -215.875 163.925781 -202.898438 161.21875 -186.671875 L 139.828125 -184.09375 C 137.117188 -211.882812 133.796875 -227.378906 129.859375 -230.578125 C 123.953125 -235.742188 113.191406 -238.328125 97.578125 -238.328125 C 81.960938 -238.328125 69.847656 -235.191406 61.234375 -228.921875 C 52.628906 -222.648438 48.328125 -213.488281 48.328125 -201.4375 C 48.328125 -194.539062 49.675781 -188.390625 52.375 -182.984375 C 55.082031 -177.578125 60.003906 -172.535156 67.140625 -167.859375 C 74.273438 -163.179688 79.929688 -159.863281 84.109375 -157.90625 C 90.265625 -154.707031 98.875 -150.769531 109.9375 -146.09375 C 121.007812 -141.414062 129.617188 -137.351562 135.765625 -133.90625 C 141.910156 -130.46875 148.550781 -125.921875 155.6875 -120.265625 C 169.457031 -108.703125 176.34375 -91.976562 176.34375 -70.09375 C 176.34375 -48.207031 168.53125 -30.5 152.90625 -16.96875 C 137.289062 -3.445312 115.957031 3.3125 88.90625 3.3125 C 74.394531 3.3125 59.945312 1.53125 45.5625 -2.03125 C 31.175781 -5.59375 20.660156 -9.097656 14.015625 -12.546875 C 13.273438 -15.492188 12.90625 -22.5 12.90625 -33.5625 C 12.90625 -44.632812 14.382812 -58.039062 17.34375 -73.78125 L 38.375 -74.890625 C 40.332031 -57.179688 41.988281 -45.742188 43.34375 -40.578125 C 44.695312 -35.410156 46.484375 -31.96875 48.703125 -30.25 Z M 48.703125 -30.25 "/></g></g></g></g></g><g clip-path="url(#877448e2f5)"><path fill="#ff9900" d="M 155.457031 73.304688 C 155.457031 65.007812 148.109375 61.675781 148.109375 61.675781 L 102.027344 39.097656 L 18.167969 39.097656 C 18.167969 39.097656 7.105469 38.636719 7.105469 48.316406 L 7.105469 75.042969 C 7.105469 84.714844 18.167969 84.253906 18.167969 84.253906 L 25.796875 84.253906 L 25.792969 84.257812 L 57.625 84.257812 L 57.625 277.554688 C 57.625 280.820312 60.015625 283.46875 62.972656 283.46875 L 86.164062 283.46875 C 89.113281 283.46875 91.507812 280.820312 91.507812 277.554688 L 91.507812 84.253906 L 155.460938 84.253906 L 155.460938 73.304688 Z M 155.457031 73.304688 " fill-opacity="1" fill-rule="nonzero"/></g><g clip-path="url(#6900295923)"><path fill="#ff9900" d="M 279.800781 246.652344 L 177.332031 246.652344 C 175.925781 246.652344 174.804688 247.792969 174.804688 249.183594 L 174.804688 253.332031 L 165.160156 253.332031 C 164.488281 253.332031 163.949219 253.871094 163.949219 254.542969 L 163.949219 254.960938 L 121.308594 254.960938 C 118.359375 254.960938 116.605469 258.496094 118.238281 261.132812 C 122.953125 268.738281 129.273438 274.816406 136.550781 278.992188 C 141.011719 281.566406 145.832031 283.410156 150.863281 284.457031 C 154.023438 285.117188 157.253906 285.460938 160.535156 285.460938 C 161.6875 285.460938 162.839844 285.550781 163.949219 285.730469 L 163.949219 286.539062 C 163.949219 287.210938 164.488281 287.75 165.160156 287.75 L 174.429688 287.75 C 181.839844 287.75 188.335938 292.828125 190.042969 300.042969 C 190.058594 300.089844 190.074219 300.148438 190.074219 300.191406 C 191.09375 304.59375 191.617188 308.996094 191.675781 313.398438 L 186.898438 313.398438 C 184.894531 313.398438 183.007812 313.773438 181.898438 314.386719 L 157.539062 327.875 L 157.539062 335.765625 L 269.082031 335.765625 L 269.082031 327.875 L 244.722656 314.386719 C 243.597656 313.773438 241.726562 313.398438 239.722656 313.398438 L 234.960938 313.398438 C 235.394531 295.851562 247.640625 280.714844 264.753906 276.417969 L 271.117188 274.816406 C 277.691406 273.167969 282.300781 267.253906 282.300781 260.488281 L 282.300781 249.183594 C 282.300781 247.777344 281.179688 246.652344 279.800781 246.652344 Z M 279.800781 246.652344 " fill-opacity="1" fill-rule="nonzero"/></g><g clip-path="url(#8a9ac0742f)"><g clip-path="url(#77b603bb31)"><g transform="matrix(1, 0, 0, 1, 34, 59)"><g clip-path="url(#b8989632ef)"><g clip-path="url(#cca0833466)"><g clip-path="url(#dbf0f07560)"><path fill="#ff9900" d="M 47.445312 0.410156 L 47.445312 47.480469 L 0.375 47.480469 L 0.375 0.410156 Z M 47.445312 0.410156 " fill-opacity="1" fill-rule="nonzero"/></g></g></g></g></g></g><g clip-path="url(#46740754c4)"><g clip-path="url(#8372af0c6a)"><g clip-path="url(#c77d6505d3)"><g transform="matrix(1, 0, 0, 1, 210, 266)"><g clip-path="url(#d08e6246ff)"><g clip-path="url(#57cb734b76)"><g clip-path="url(#62f8a6800f)"><g clip-path="url(#071bd642a5)"><path fill="#ff9900" d="M -19.988281 41.269531 L 5.777344 0.558594 L 66.84375 39.210938 L 41.078125 79.921875 Z M -19.988281 41.269531 " fill-opacity="1" fill-rule="nonzero"/></g></g></g></g></g></g></g></g><g clip-path="url(#836f901af9)"><g clip-path="url(#9de6eeb7aa)"><g clip-path="url(#798bff3635)"><g transform="matrix(1, 0, 0, 1, 182, 276)"><g clip-path="url(#7e92f4e197)"><g clip-path="url(#97003c2c35)"><g clip-path="url(#02ef122c4b)"><g clip-path="url(#6c67706c5e)"><path fill="#ff9900" d="M 47.046875 35.410156 L 13.617188 60.082031 L -12.214844 25.085938 L 21.21875 0.410156 Z M 47.046875 35.410156 " fill-opacity="1" fill-rule="nonzero"/></g></g></g></g></g></g></g></g><g clip-path="url(#e0745a7cd1)"><g clip-path="url(#74c9b92dcf)"><g transform="matrix(1, 0, 0, 1, 73, 59)"><g clip-path="url(#91901ccf7e)"><g clip-path="url(#73290dd9ff)"><g clip-path="url(#1a8c1afcee)"><path fill="#ff9900" d="M 0.226562 0.410156 L 47.296875 0.410156 L 47.296875 47.480469 L 0.226562 47.480469 Z M 0.226562 0.410156 " fill-opacity="1" fill-rule="nonzero"/></g></g></g></g></g></g></g></g></svg>